<?xml version="1.0" standalone="no"?>
<!DOCTYPE svg PUBLIC "-//W3C//DTD SVG 20010904//EN"
 "http://www.w3.org/TR/2001/REC-SVG-20010904/DTD/svg10.dtd">
<svg version="1.0" xmlns="http://www.w3.org/2000/svg"
 width="900.000000pt" height="900.000000pt" viewBox="0 0 900.000000 900.000000"
 preserveAspectRatio="xMidYMid meet">
<metadata>
Created by potrace 1.10, written by Peter Selinger 2001-2011
</metadata>
<g transform="translate(0.000000,900.000000) scale(0.100000,-0.100000)"
fill="#ffffff" stroke="none">
<path d="M7979 6396 c-3 -3 -52 -12 -110 -21 -57 -8 -142 -21 -189 -30 -47 -9
-125 -23 -175 -31 -89 -16 -191 -33 -335 -59 -41 -7 -118 -21 -170 -30 -52 -9
-129 -22 -170 -30 -41 -7 -118 -21 -170 -30 -140 -24 -233 -41 -340 -60 -179
-32 -245 -43 -340 -60 -52 -9 -129 -23 -170 -30 -41 -7 -115 -20 -165 -29
-149 -26 -183 -35 -212 -53 -45 -28 -89 -75 -110 -118 -38 -74 -36 -115 12
-425 9 -58 22 -146 29 -196 7 -49 16 -95 20 -102 8 -13 32 -16 39 -4 3 4 -2
59 -10 122 -29 232 -33 457 -8 463 13 3 32 -126 41 -283 7 -105 11 -112 39
-65 46 77 49 85 39 113 -12 35 -12 215 1 222 5 3 13 -14 17 -38 4 -23 10 -48
14 -54 4 -7 8 -24 9 -38 3 -69 6 -80 19 -80 8 0 23 14 33 30 9 17 20 30 24 30
4 0 21 11 38 25 l30 26 53 -27 c29 -15 62 -37 73 -50 19 -23 54 -33 55 -16 1
4 3 47 5 96 2 49 7 91 10 94 16 16 26 -27 32 -142 6 -120 8 -128 31 -147 41
-32 59 -25 64 24 3 23 2 47 -3 52 -11 15 -6 239 6 245 6 3 15 -23 21 -60 7
-36 13 -65 14 -65 1 0 4 -29 6 -65 7 -114 14 -154 27 -141 19 19 92 13 121
-10 l27 -21 34 38 c19 21 35 44 35 51 0 14 9 16 51 13 36 -2 81 52 73 86 -3
13 -3 41 1 61 9 48 24 25 25 -37 1 -41 4 -48 44 -77 24 -18 56 -35 72 -39 l27
-7 -6 91 c-6 96 1 117 27 80 11 -16 16 -46 16 -100 0 -78 11 -103 33 -75 16
19 45 28 52 17 4 -6 13 -10 21 -10 12 0 14 31 12 204 -2 144 0 208 9 216 8 9
12 8 16 -6 8 -30 18 -110 23 -187 2 -40 8 -101 12 -137 l7 -65 71 3 72 4 46
-60 c25 -33 46 -64 46 -69 1 -4 19 -37 40 -73 26 -42 40 -58 41 -45 2 91 -4
242 -10 248 -5 5 -4 22 2 38 9 22 8 37 -1 61 -8 21 -8 36 -2 42 6 6 10 18 10
27 0 10 14 33 30 51 17 18 30 41 30 51 0 10 7 31 15 47 8 15 18 53 21 83 8 70
17 86 41 71 11 -7 21 -34 29 -73 6 -34 16 -67 22 -73 7 -7 12 -25 12 -42 0
-16 10 -43 23 -60 37 -50 47 -83 41 -130 -4 -24 -2 -52 5 -64 7 -14 8 -23 1
-27 -6 -4 -10 -60 -10 -135 0 -150 0 -150 98 -150 71 0 72 2 72 105 0 52 -4
76 -15 85 -16 13 -20 55 -6 64 4 3 11 29 13 57 3 28 11 55 19 59 30 19 53 112
54 220 1 58 6 106 11 108 5 2 11 -5 13 -15 1 -10 10 -26 19 -36 15 -17 15 -20
-7 -36 -21 -16 -23 -24 -19 -75 4 -44 10 -60 26 -72 13 -9 22 -26 22 -40 0
-14 7 -36 16 -50 9 -13 17 -43 17 -67 1 -25 8 -47 17 -54 13 -11 13 -15 -2
-43 -20 -35 -24 -110 -7 -110 6 0 17 7 25 15 17 16 69 20 78 6 7 -11 -17 -21
-47 -21 -20 0 -77 -42 -77 -56 0 -3 5 -14 10 -25 10 -17 22 -19 115 -19 96 0
105 2 119 22 9 12 16 32 16 43 1 19 42 75 56 75 4 0 16 -7 25 -16 10 -9 36
-18 58 -20 33 -3 42 1 55 22 16 23 16 25 -1 30 -10 3 -28 10 -39 16 -32 15
-204 -14 -204 -34 0 -11 -58 -10 -64 1 -7 10 17 21 45 21 10 0 19 5 19 10 0 6
10 15 23 21 32 14 52 48 38 62 -15 15 -14 28 1 24 7 -1 14 8 16 21 4 26 -6 29
-22 6 -10 -13 -12 -10 -13 20 -1 30 3 36 30 46 42 14 50 3 50 -74 0 -58 2 -66
18 -66 11 0 28 5 39 12 17 11 23 8 48 -15 l29 -28 7 26 c4 15 4 52 1 83 -3 32
-2 113 2 182 l8 125 66 -3 c37 -2 69 0 72 5 3 4 1 31 -4 58 -13 74 -36 211
-49 289 -21 124 -93 219 -188 246 -49 14 -126 23 -133 16z m-749 -397 c0 -6
-16 -26 -35 -43 -23 -22 -35 -41 -35 -59 0 -22 -5 -27 -24 -27 -14 0 -37 11
-52 25 -15 14 -38 28 -51 31 -13 4 -23 12 -23 20 0 19 47 18 66 -1 21 -21 41
-19 54 6 20 37 100 75 100 48z m200 -105 c0 -18 -24 -28 -47 -19 -16 6 -15 8
7 25 26 20 40 18 40 -6z m-1376 -9 c3 -8 15 -15 26 -15 11 0 23 7 26 15 4 8
13 15 21 15 25 0 10 -44 -19 -58 -31 -15 -35 -27 -12 -36 8 -3 12 -10 9 -16
-4 -6 -17 -4 -35 5 -16 8 -40 15 -54 15 -33 0 -42 16 -16 30 12 6 20 21 20 35
0 27 24 34 34 10z m1759 -23 c6 -9 -28 -52 -41 -52 -5 0 -12 9 -15 21 -4 14 1
23 16 29 28 11 35 12 40 2z"/>
<path d="M8247 5743 c-9 -8 -9 -72 -1 -140 6 -47 10 -53 30 -53 12 0 26 5 29
10 4 6 15 8 26 5 22 -7 23 -5 7 30 -9 19 -8 38 2 81 12 48 12 57 -1 65 -16 10
-83 12 -92 2z"/>
<path d="M8240 5495 c0 -4 6 -18 14 -34 9 -17 11 -32 5 -42 -5 -8 -9 -20 -9
-28 0 -11 3 -11 15 -1 17 14 23 11 39 -22 7 -13 20 -23 30 -23 16 0 19 9 20
78 l1 77 -57 0 c-32 0 -58 -2 -58 -5z"/>
<path d="M8387 5483 c-4 -3 -7 -37 -7 -74 0 -57 3 -70 19 -79 45 -24 50 -7 26
86 -15 60 -26 79 -38 67z"/>
<path d="M8304 5256 c-3 -8 -4 -29 -2 -48 l3 -33 66 -3 c61 -3 67 -1 72 19 8
29 -8 58 -36 63 -77 16 -97 17 -103 2z"/>
<path d="M5407 4963 c-4 -3 -7 -84 -7 -180 l0 -174 133 3 132 3 3 25 c2 14 11
33 19 43 15 16 88 17 1264 17 1224 0 1248 0 1259 -19 7 -13 10 -316 10 -911 0
-595 -3 -898 -10 -911 -11 -19 -35 -19 -1265 -19 -942 0 -1256 3 -1261 12 -4
6 -10 25 -13 42 l-7 31 -131 3 -132 3 -3 -172 c-2 -116 1 -174 8 -180 7 -5
625 -8 1540 -7 l1529 3 0 1195 0 1195 -1531 3 c-842 1 -1534 -1 -1537 -5z"/>
<path d="M790 4420 c-150 -23 -228 -82 -271 -205 -19 -54 -20 -78 -17 -463 l3
-407 28 -57 c36 -73 101 -131 175 -155 48 -15 91 -18 277 -18 256 0 303 10
380 77 102 90 115 154 115 575 0 334 -7 414 -46 493 -33 68 -96 119 -183 147
-54 17 -374 27 -461 13z m369 -285 c16 -8 31 -25 35 -37 3 -13 6 -166 6 -340
0 -307 -1 -319 -20 -338 -34 -34 -65 -40 -195 -40 -130 0 -167 8 -197 44 -16
19 -18 53 -18 347 0 408 -18 377 218 378 107 1 150 -3 171 -14z"/>
<path d="M2050 4423 c-156 -15 -257 -89 -296 -215 -17 -57 -19 -96 -19 -443 0
-453 2 -463 94 -556 84 -84 125 -94 376 -94 169 0 208 3 250 18 60 22 125 70
153 113 46 70 51 108 53 384 0 146 -3 266 -8 271 -5 5 -104 8 -224 7 l-214 -3
-3 -137 -3 -137 88 -3 88 -3 3 -80 c4 -103 -2 -121 -41 -145 -27 -17 -50 -20
-145 -20 -83 0 -121 4 -143 16 -55 28 -59 53 -59 373 0 316 5 346 57 370 16 7
123 11 308 11 211 0 286 3 291 12 11 18 11 241 1 256 -7 9 -76 12 -291 10
-154 0 -297 -3 -316 -5z"/>
<path d="M3227 4415 c-9 -8 -18 -29 -22 -47 -4 -18 -12 -51 -20 -73 -7 -22
-21 -67 -30 -100 -10 -33 -24 -78 -30 -100 -7 -22 -21 -67 -30 -100 -10 -33
-24 -78 -30 -100 -7 -22 -21 -67 -30 -100 -10 -33 -24 -78 -30 -100 -7 -22
-21 -67 -30 -100 -10 -33 -24 -78 -30 -100 -7 -22 -21 -67 -30 -100 -19 -62
-30 -100 -61 -196 -27 -89 -26 -90 122 -87 l127 3 34 110 c19 61 40 121 46
135 l13 25 243 0 243 0 13 -35 c8 -19 23 -69 36 -110 12 -41 28 -87 36 -102
l14 -28 124 0 c78 0 126 4 130 11 4 6 1 29 -7 52 -8 23 -23 69 -33 102 -9 33
-23 78 -30 100 -6 22 -20 67 -30 100 -9 33 -23 78 -30 100 -6 22 -20 67 -30
100 -9 33 -23 78 -30 100 -6 22 -20 67 -30 100 -9 33 -23 78 -30 100 -6 22
-20 67 -30 100 -9 33 -23 78 -30 100 -6 22 -20 67 -29 100 -10 33 -25 80 -35
105 l-17 45 -201 3 c-169 2 -204 0 -216 -13z m225 -312 c10 -9 18 -23 18 -31
0 -9 27 -96 61 -195 33 -99 58 -186 55 -193 -7 -19 -291 -20 -299 -1 -2 7 25
102 61 212 35 110 66 206 68 213 5 16 14 15 36 -5z"/>
<path d="M4222 4422 c-10 -7 -12 -144 -12 -652 0 -354 4 -648 8 -652 5 -5 65
-7 133 -6 l124 3 5 225 c3 124 9 231 13 238 5 8 35 12 86 12 68 0 80 -3 99
-23 12 -13 22 -28 22 -34 0 -6 9 -32 21 -59 31 -74 35 -84 59 -144 11 -30 25
-64 29 -75 5 -11 20 -47 33 -80 l25 -60 128 -3 c71 -1 132 1 138 7 5 5 4 16
-2 27 -6 11 -44 122 -86 249 l-76 229 53 47 c52 46 84 98 107 170 13 43 15
299 2 331 -5 13 -12 34 -15 49 -8 39 -57 105 -101 137 -84 60 -119 66 -465 69
-173 2 -321 0 -328 -5z m595 -283 c25 -8 33 -19 43 -55 19 -66 8 -169 -21
-200 -22 -23 -26 -24 -185 -24 -138 0 -163 2 -168 16 -3 9 -6 67 -6 129 0 62
3 120 6 129 5 14 28 16 154 16 81 0 161 -5 177 -11z"/>
<path d="M5407 4423 c-4 -3 -7 -300 -7 -660 l0 -653 129 0 c72 0 132 4 136 10
3 5 5 298 5 652 0 498 -3 644 -13 650 -15 9 -241 11 -250 1z"/>
<path d="M5934 4417 c-2 -7 -3 -69 -2 -138 l3 -124 160 -5 160 -5 5 -515 5
-515 130 0 130 0 5 515 c3 283 6 516 8 517 1 1 73 4 160 5 l157 3 0 135 0 135
-458 3 c-371 2 -459 0 -463 -11z"/>
<path d="M7132 4422 c-10 -7 -12 -145 -10 -658 l3 -649 415 0 415 0 3 133 3
132 -276 0 -275 0 -10 26 c-14 37 -13 197 2 212 9 9 86 12 285 12 l274 0 -3
138 -3 137 -275 3 c-204 2 -276 5 -282 15 -9 14 -10 172 -2 205 l6 22 263 0
c145 0 270 3 279 6 24 9 24 259 0 268 -24 9 -797 7 -812 -2z"/>
<path d="M504 2915 c-11 -27 4 -44 43 -47 l38 -3 3 -142 c3 -149 6 -158 51
-146 20 5 21 12 21 138 0 144 3 151 55 157 24 2 30 8 30 28 l0 25 -118 3 c-98
2 -118 0 -123 -13z"/>
<path d="M1278 2923 c-46 -12 -67 -226 -30 -303 l17 -35 97 -3 c94 -3 96 -2
118 25 20 26 21 37 18 156 -3 121 -4 130 -27 148 -19 15 -38 19 -100 18 -42
-1 -83 -3 -93 -6z m142 -63 c11 -7 16 -33 18 -98 5 -106 -5 -122 -73 -122 -57
0 -65 15 -65 115 0 99 9 115 63 115 23 0 49 -5 57 -10z"/>
<path d="M1994 2922 c-15 -9 -17 -222 -3 -274 16 -60 30 -68 124 -68 79 0 85
2 105 27 19 24 20 37 18 172 l-3 146 -30 0 -30 0 4 -123 c3 -107 1 -125 -14
-142 -25 -27 -90 -27 -105 -1 -5 11 -10 76 -10 145 0 124 0 126 -22 126 -13 0
-28 -4 -34 -8z"/>
<path d="M2727 2923 c-4 -3 -7 -82 -7 -174 0 -179 1 -182 53 -172 24 5 26 8
20 52 -6 54 11 77 50 67 17 -4 27 -19 41 -60 20 -58 31 -68 65 -59 23 6 22 25
-5 91 -12 31 -11 36 11 72 39 62 30 148 -19 182 -14 10 -200 10 -209 1z m177
-86 c18 -49 -19 -78 -79 -63 -29 7 -39 35 -25 70 9 24 14 27 52 24 36 -3 44
-7 52 -31z"/>
<path d="M3470 2923 c0 -4 -1 -82 -1 -172 -1 -137 2 -166 14 -173 8 -4 23 -5
31 -2 14 6 16 28 14 178 l-3 171 -27 3 c-16 2 -28 0 -28 -5z"/>
<path d="M4041 2909 c-42 -45 -39 -134 6 -169 19 -15 41 -20 83 -20 54 0 58
-2 64 -26 11 -43 -8 -54 -95 -54 -76 0 -79 -1 -85 -26 -7 -28 10 -48 34 -39 8
3 52 5 98 5 l84 0 20 33 c24 38 26 87 5 126 -17 35 -32 41 -94 41 -61 0 -90
26 -73 65 10 22 17 24 94 27 81 3 83 4 83 28 0 25 -1 25 -102 28 -94 2 -103 1
-122 -19z"/>
<path d="M4757 2923 c-4 -3 -7 -82 -7 -174 0 -161 1 -167 21 -172 42 -11 48 0
51 96 2 61 7 92 16 95 6 2 12 -4 12 -13 0 -9 6 -31 14 -48 7 -18 21 -53 30
-79 19 -51 34 -62 70 -48 16 6 27 20 31 42 4 18 11 38 15 43 4 6 11 25 15 42
3 18 11 36 17 39 18 12 28 -19 28 -92 0 -67 2 -72 23 -76 46 -9 47 -6 47 178
l0 174 -50 0 c-49 0 -50 -1 -68 -42 -17 -38 -47 -119 -58 -157 -7 -22 -41 14
-55 58 -6 20 -15 41 -19 46 -4 6 -10 23 -14 40 -4 16 -12 36 -18 42 -11 13
-90 18 -101 6z"/>
</g>
</svg>
