<?xml version="1.0" standalone="no"?>
<!DOCTYPE svg PUBLIC "-//W3C//DTD SVG 20010904//EN"
 "http://www.w3.org/TR/2001/REC-SVG-20010904/DTD/svg10.dtd">
<svg version="1.0" xmlns="http://www.w3.org/2000/svg"
 width="900.000000pt" height="726.000000pt" viewBox="0 0 900.000000 726.000000"
 preserveAspectRatio="xMidYMid meet">
<metadata>
Created by potrace 1.10, written by Peter Selinger 2001-2011
</metadata>
<g transform="translate(0.000000,726.000000) scale(0.100000,-0.100000)"
fill="#000000" stroke="none">
<path d="M4495 6238 c-35 -6 -69 -18 -81 -29 -12 -11 -28 -20 -35 -19 -59 9
-52 -32 17 -109 60 -65 139 -124 214 -158 88 -40 121 -53 133 -53 26 0 138
-65 193 -113 55 -46 75 -70 89 -107 3 -8 13 -28 21 -43 7 -16 14 -35 14 -43 0
-25 30 -75 64 -106 31 -28 102 -55 115 -43 3 4 4 60 2 126 -3 114 -2 119 17
119 11 0 33 -6 49 -14 15 -8 60 -29 98 -47 186 -87 296 -167 467 -339 117
-119 218 -249 268 -345 6 -11 20 -38 33 -60 40 -71 103 -228 130 -325 36 -131
48 -213 53 -370 9 -250 -19 -486 -77 -655 -6 -16 -15 -43 -19 -60 -33 -116
-132 -317 -219 -445 -36 -52 -70 -100 -75 -106 -6 -7 -38 -44 -71 -83 -111
-132 -331 -313 -485 -399 -69 -39 -219 -112 -230 -112 -7 0 -24 -6 -38 -14
-71 -36 -264 -89 -387 -106 -38 -5 -99 -14 -135 -20 -205 -31 -559 12 -790 95
-137 50 -293 126 -384 186 -32 21 -60 39 -63 39 -17 0 -187 143 -279 234 -95
96 -234 262 -234 281 0 4 -11 21 -24 38 -36 49 -94 155 -143 267 -9 19 -21 46
-28 60 -6 14 -20 52 -29 85 -10 33 -25 75 -32 93 -8 18 -14 42 -14 54 0 12 -6
44 -14 72 -60 212 -60 558 0 801 29 114 75 267 93 303 4 9 15 33 23 52 15 34
80 165 102 205 26 45 73 115 128 187 32 42 58 79 58 82 0 52 -279 -270 -333
-384 -4 -8 -16 -28 -27 -45 -28 -43 -120 -232 -120 -247 0 -7 -7 -22 -15 -32
-8 -11 -15 -28 -15 -38 0 -9 -6 -32 -14 -50 -8 -18 -21 -60 -29 -93 -57 -229
-76 -423 -58 -606 13 -133 33 -251 58 -339 29 -99 76 -238 92 -268 5 -9 26
-51 46 -92 158 -328 419 -623 729 -825 94 -61 331 -185 356 -185 8 0 24 -7 34
-15 11 -8 28 -15 38 -15 9 0 32 -6 50 -14 18 -8 58 -21 88 -29 223 -63 331
-77 592 -77 228 0 270 4 468 46 409 87 811 329 1109 667 188 214 345 484 415
712 10 33 25 75 32 93 8 18 14 42 14 54 0 12 6 44 14 72 39 138 50 247 50 506
0 204 -3 274 -18 350 -41 219 -86 360 -167 525 -46 94 -165 286 -193 309 -6 6
-30 33 -51 60 -54 68 -168 183 -240 243 -70 57 -212 163 -240 179 -25 14 -31
53 -12 78 13 17 18 18 66 6 57 -13 83 -4 74 29 -5 21 27 45 77 56 19 4 40 11
45 15 6 4 24 10 40 14 39 9 75 33 75 49 0 7 -12 18 -27 24 -16 7 -50 25 -78
40 -40 22 -62 28 -110 27 -81 -1 -266 -29 -386 -60 -140 -35 -274 -11 -414 76
-38 24 -161 85 -200 101 -45 17 -165 39 -210 38 -22 -1 -67 -6 -100 -11z m350
-122 c65 -23 219 -102 234 -120 8 -9 11 -20 7 -24 -12 -11 -111 -8 -137 5 -13
6 -31 14 -39 17 -8 4 -28 15 -45 26 -16 11 -42 25 -57 31 -16 6 -28 15 -28 19
0 5 -11 10 -25 12 -34 4 -37 22 -5 26 14 2 29 8 35 13 12 11 12 11 60 -5z"/>
<path d="M4730 5306 c-56 -19 -50 -36 15 -36 45 0 63 -5 91 -26 36 -28 39 -27
82 14 8 7 39 12 72 12 71 0 84 14 33 35 -30 13 -45 14 -74 6 -44 -13 -113 -14
-154 -2 -20 5 -43 4 -65 -3z"/>
<path d="M4207 5113 c-4 -3 -7 -13 -7 -20 0 -11 8 -13 30 -8 22 5 39 1 64 -14
42 -26 61 -26 93 -1 16 12 41 20 65 20 27 0 38 4 36 13 -6 15 -97 22 -111 8
-14 -14 -64 -14 -72 -1 -7 11 -88 14 -98 3z"/>
<path d="M4785 5020 c-8 -12 20 -24 35 -15 6 3 8 11 5 16 -8 12 -32 12 -40 -1z"/>
<path d="M3455 4941 c-79 -16 -135 -80 -135 -152 0 -52 -7 -64 -27 -47 -10 8
-17 8 -26 -1 -9 -9 -8 -19 5 -44 9 -17 19 -39 22 -47 3 -8 15 -28 26 -45 11
-16 24 -41 30 -54 13 -29 20 -22 49 49 13 30 34 70 48 88 25 33 25 33 4 39
-12 3 -21 11 -21 18 0 14 36 64 60 82 13 10 13 12 -2 18 -26 10 -22 32 12 57
54 39 35 56 -45 39z"/>
<path d="M5537 4803 c-38 -10 -2 -23 63 -23 69 0 99 13 57 24 -25 6 -93 6
-120 -1z"/>
<path d="M3695 4773 c-22 -9 -57 -29 -77 -45 -40 -31 -58 -30 -58 3 0 32 -16
22 -53 -33 -47 -70 -76 -153 -59 -170 9 -9 16 -8 30 5 10 9 24 17 31 17 6 0
25 7 42 15 16 9 63 17 107 19 74 3 77 4 74 26 -2 22 0 23 50 17 29 -4 63 -9
75 -13 18 -5 25 -1 33 21 6 16 16 25 24 22 34 -13 106 -19 106 -8 0 19 -111
98 -167 120 -65 25 -104 26 -158 4z"/>
<path d="M2908 4681 c-47 -22 -74 -46 -104 -93 -38 -60 -26 -89 22 -53 26 19
74 20 74 0 0 -19 37 -19 70 0 33 19 80 19 80 1 0 -8 -4 -18 -10 -21 -13 -8
-13 -25 1 -25 6 0 18 7 26 16 14 13 36 15 135 13 91 -3 118 -1 118 9 0 33
-110 172 -136 172 -17 0 -18 -22 -2 -38 19 -19 -6 -15 -84 13 -80 29 -137 31
-190 6z"/>
<path d="M4374 4668 c-4 -6 8 -23 25 -38 35 -33 37 -38 15 -54 -14 -11 -14
-15 2 -43 16 -27 17 -34 5 -57 -12 -22 -11 -30 4 -63 10 -20 20 -57 23 -80 3
-27 10 -43 18 -43 17 0 113 119 114 140 0 9 -9 23 -20 33 -11 9 -17 23 -14 32
12 29 -26 104 -69 139 -43 34 -93 51 -103 34z"/>
<path d="M3996 4565 c-15 -8 -32 -15 -38 -15 -12 0 -68 -42 -68 -51 0 -5 28
-9 63 -11 58 -3 62 -5 60 -25 -3 -21 2 -23 41 -23 60 0 106 -18 106 -41 0 -13
10 -20 38 -24 38 -6 118 -40 124 -53 2 -4 18 -15 36 -24 28 -15 34 -16 39 -3
11 31 -25 163 -57 205 l-19 25 -10 -28 -11 -28 -47 38 c-27 22 -65 47 -86 56
-47 21 -132 22 -171 2z"/>
<path d="M3635 4545 c-5 -1 -36 -10 -67 -20 -68 -20 -74 -37 -21 -62 41 -20
101 -96 102 -129 1 -12 11 -34 23 -49 l21 -27 18 23 c14 19 19 20 22 9 2 -8 9
-31 15 -50 5 -19 13 -52 17 -72 6 -39 28 -51 39 -22 11 28 26 4 26 -41 0 -24
4 -47 10 -50 18 -11 80 156 80 215 0 76 -75 177 -143 194 -35 8 -44 31 -23 55
16 17 14 19 -30 25 -48 6 -72 7 -89 1z"/>
<path d="M3054 4472 c-79 -26 -119 -72 -63 -72 26 0 24 -17 -3 -31 -35 -18
-77 -69 -99 -119 -16 -37 -19 -61 -16 -130 4 -95 26 -190 43 -190 6 0 17 20
23 44 12 50 38 78 46 52 3 -9 7 -23 10 -32 10 -32 25 -1 25 54 0 31 7 70 15
86 8 15 15 34 15 42 0 22 21 27 35 8 13 -18 14 -18 20 1 4 11 10 27 15 35 5 8
22 39 37 68 30 57 103 142 122 142 17 0 13 28 -6 39 -38 19 -165 22 -219 3z"/>
<path d="M3416 4453 c-3 -3 0 -13 8 -22 7 -9 16 -25 19 -36 3 -11 15 -45 27
-75 12 -30 24 -64 27 -75 3 -11 11 -34 19 -52 8 -17 14 -36 14 -43 0 -7 6 -33
14 -59 24 -77 46 -177 46 -209 0 -17 4 -42 10 -56 5 -14 14 -83 20 -153 6 -71
15 -160 18 -200 4 -39 6 -76 4 -82 -5 -15 -130 -14 -347 3 -99 8 -250 16 -335
17 l-155 3 3 -26 c3 -26 35 -100 87 -198 l24 -45 228 -6 c184 -4 237 -9 273
-23 25 -10 49 -21 55 -26 18 -15 118 -40 159 -40 73 -1 165 -50 166 -87 0 -18
-77 -93 -95 -93 -8 0 -40 -12 -72 -26 -32 -15 -77 -30 -101 -35 -23 -5 -59
-20 -79 -34 -21 -14 -51 -25 -68 -26 -43 -1 -110 -23 -110 -36 0 -31 323 -254
367 -253 8 1 6 6 -6 15 -20 15 -14 35 13 35 9 0 22 5 27 10 16 16 145 50 191
50 23 0 59 7 80 16 72 31 103 49 103 56 0 5 7 8 15 8 9 0 32 16 52 35 20 19
43 35 51 35 8 0 21 8 28 17 10 15 26 17 95 15 86 -3 111 -12 179 -63 57 -43
142 -86 183 -93 42 -8 45 -24 6 -43 -46 -22 -97 -43 -107 -43 -5 0 -23 -7 -38
-15 -16 -8 -36 -15 -44 -15 -8 0 -46 -12 -85 -26 -63 -23 -87 -26 -240 -28
-123 -2 -193 -8 -252 -22 -46 -10 -83 -22 -83 -25 0 -6 83 -35 180 -62 319
-88 692 -79 995 25 17 5 44 13 60 17 17 4 39 12 50 18 11 5 36 17 55 26 68 30
125 59 155 78 17 10 37 22 45 26 117 55 450 346 450 393 0 12 -12 21 -37 28
-39 10 -93 29 -128 43 -92 38 -481 148 -650 184 -44 9 -98 21 -120 27 -22 6
-62 14 -90 18 -27 5 -70 13 -95 18 -25 6 -90 18 -145 27 -55 9 -123 23 -151
31 -28 8 -66 14 -85 14 -19 1 -63 7 -99 15 -36 8 -84 14 -108 15 -65 0 -65 2
-5 205 8 28 19 64 25 80 5 17 14 44 18 60 11 37 37 111 51 145 6 14 17 39 24
55 40 96 102 214 150 285 50 75 59 100 35 100 -5 0 -35 -33 -67 -72 -32 -40
-60 -75 -64 -78 -7 -7 -129 -210 -129 -215 0 -3 -14 -35 -31 -72 -55 -123 -54
-121 -100 -243 -8 -19 -27 -75 -44 -125 l-30 -90 -60 -3 c-88 -3 -84 -9 -114
153 -6 33 -18 101 -27 150 -49 293 -80 411 -153 590 -31 77 -140 223 -155 208z"/>
<path d="M3273 4347 c-76 -64 -125 -129 -141 -183 -16 -55 -17 -54 22 -47 l34
5 -5 -47 c-3 -26 0 -71 7 -101 25 -103 137 -174 272 -174 71 0 93 12 56 31
-13 6 -34 21 -46 33 l-24 21 48 5 c26 3 49 11 52 18 2 6 -1 12 -7 12 -26 0
-171 113 -171 133 0 5 19 6 45 3 25 -4 45 -4 45 1 0 4 -10 24 -22 43 -57 90
-79 156 -82 239 -1 30 -6 56 -11 58 -6 1 -38 -21 -72 -50z"/>
<path d="M4558 4335 c-38 -36 -68 -69 -68 -75 0 -6 26 -10 59 -10 62 0 155
-24 183 -47 18 -16 31 -4 22 21 -13 35 63 5 94 -36 19 -26 42 -22 42 7 0 32 4
31 50 -5 66 -52 77 -36 35 53 -49 103 -169 151 -279 112 -48 -17 -64 -11 -58
21 2 13 0 24 -4 24 -5 0 -39 -29 -76 -65z"/>
<path d="M4103 4332 c-3 -12 -22 -27 -51 -37 -60 -22 -88 -48 -113 -104 -22
-50 -26 -167 -8 -220 14 -41 45 -42 54 -1 3 16 15 32 25 35 11 3 31 31 45 61
22 47 29 54 54 54 22 0 45 16 95 65 50 49 73 65 94 65 37 0 44 8 28 32 -22 31
-81 55 -151 63 -61 6 -67 5 -72 -13z"/>
<path d="M4497 4213 c-3 -5 17 -38 45 -73 48 -63 87 -136 101 -191 4 -15 15
-29 26 -32 23 -6 37 -76 27 -132 -7 -34 -6 -35 19 -25 15 6 28 10 31 10 2 0 4
-20 4 -45 0 -37 3 -45 19 -45 13 0 27 20 50 71 51 117 38 243 -34 310 -32 31
-32 49 0 49 26 0 26 0 8 25 -10 13 -23 25 -30 25 -6 0 -24 6 -40 14 -50 25
-217 54 -226 39z"/>
<path d="M4430 4119 c0 -55 -34 -125 -87 -178 -53 -53 -53 -75 0 -79 24 -2 37
-8 34 -15 -7 -21 -81 -66 -120 -73 -20 -4 -40 -11 -43 -15 -6 -10 2 -13 51
-24 l30 -7 -25 -19 c-14 -10 -35 -22 -47 -25 -13 -3 -23 -12 -23 -20 0 -11 17
-14 72 -14 103 0 173 25 231 82 44 44 47 51 47 97 0 53 12 70 35 51 31 -25 32
34 3 111 -24 64 -114 169 -145 169 -9 0 -13 -14 -13 -41z"/>
<path d="M5284 4064 c-16 -8 -36 -23 -45 -33 -9 -11 -39 -32 -67 -47 -33 -18
-52 -35 -52 -46 0 -17 12 -18 144 -18 115 0 146 -3 156 -15 10 -12 41 -15 156
-15 78 0 145 3 147 8 20 34 -77 98 -136 89 -24 -3 -41 2 -67 22 -59 44 -93 58
-151 64 -39 4 -66 1 -85 -9z"/>
<path d="M3740 2410 c0 -5 9 -10 21 -10 11 0 17 5 14 10 -3 6 -13 10 -21 10
-8 0 -14 -4 -14 -10z"/>
<path d="M1362 1737 c-12 -13 -22 -29 -22 -37 0 -7 -6 -36 -14 -64 -16 -56
-39 -192 -56 -327 -23 -188 -7 -299 43 -299 49 0 55 21 55 195 -1 159 11 252
47 360 21 62 29 149 16 174 -15 27 -42 27 -69 -2z"/>
<path d="M5090 1738 c-11 -13 -23 -34 -26 -48 -2 -14 -11 -54 -19 -90 -8 -36
-16 -76 -17 -90 -3 -24 -6 -25 -60 -22 -71 4 -122 -20 -189 -89 -140 -144
-146 -369 -9 -369 57 0 102 21 155 74 25 25 49 46 54 46 4 0 12 -19 17 -41 12
-54 49 -84 93 -74 47 10 91 51 91 85 0 38 -13 44 -49 26 -28 -15 -30 -14 -45
9 -9 13 -16 39 -16 57 1 71 39 264 76 388 27 89 28 118 9 140 -23 26 -39 25
-65 -2z m-135 -346 c36 -26 37 -39 8 -98 -35 -72 -123 -164 -158 -164 -14 0
-29 8 -35 21 -25 45 56 182 134 230 35 21 37 22 51 11z"/>
<path d="M8466 1731 c-26 -29 -45 -89 -46 -146 0 -27 -7 -90 -15 -140 -8 -49
-15 -115 -15 -145 0 -30 -7 -80 -15 -110 -20 -73 -19 -144 1 -164 37 -38 72
-9 84 69 10 73 17 92 37 99 15 6 55 -28 98 -84 41 -52 98 -90 135 -90 46 0 82
32 78 68 -2 21 -10 28 -40 35 -40 9 -168 118 -168 143 0 7 30 35 66 61 37 27
79 60 95 75 49 45 31 108 -27 94 -32 -8 -97 -57 -176 -132 -62 -57 -78 -65
-78 -36 0 19 23 149 46 253 19 90 18 132 -4 152 -24 22 -35 21 -56 -2z"/>
<path d="M7670 1708 c-27 -29 -25 -69 5 -102 31 -34 40 -33 81 8 40 40 42 54
13 90 -26 33 -70 35 -99 4z"/>
<path d="M535 1695 c-5 -1 -35 -10 -65 -19 -107 -32 -228 -152 -297 -296 -33
-69 -36 -83 -37 -166 -1 -84 1 -93 27 -127 42 -56 92 -77 179 -76 57 0 83 5
118 24 25 13 54 28 65 33 44 21 70 65 66 110 -2 21 -48 13 -93 -16 -44 -29
-130 -62 -160 -62 -55 0 -114 74 -105 132 19 123 137 289 245 343 72 36 82 30
82 -49 0 -65 7 -76 46 -76 24 0 62 49 69 89 9 54 -18 117 -59 135 -38 18 -68
25 -81 21z"/>
<path d="M1652 1653 c-17 -6 -42 -57 -42 -83 0 -11 -9 -38 -20 -60 -19 -37
-22 -39 -72 -42 -52 -3 -53 -4 -56 -36 -4 -43 12 -62 54 -62 40 0 42 -9 19
-84 -8 -27 -15 -84 -15 -127 0 -76 1 -77 35 -108 43 -38 85 -40 150 -10 77 36
133 126 90 143 -8 3 -35 -8 -59 -24 -92 -62 -142 -29 -112 73 9 30 16 68 16
84 0 17 8 37 18 45 19 17 96 38 140 38 35 0 65 30 60 62 -3 22 -8 23 -80 26
-76 3 -78 3 -78 29 0 14 5 43 12 64 10 34 9 42 -7 59 -18 20 -29 23 -53 13z"/>
<path d="M6589 1651 c-50 -4 -93 -12 -103 -20 -24 -20 -20 -54 9 -79 14 -13
24 -26 21 -30 -3 -5 -10 -53 -16 -108 -24 -216 -37 -320 -44 -336 -5 -10 -1
-27 9 -42 20 -30 61 -35 103 -12 31 17 119 46 139 46 24 0 148 63 194 99 156
121 184 305 65 424 -63 63 -135 74 -377 58z m293 -123 c78 -60 72 -171 -13
-256 -26 -26 -62 -54 -81 -63 -101 -49 -188 -69 -205 -47 -12 15 -1 156 23
295 16 91 16 92 47 96 18 3 69 4 114 3 70 -2 86 -6 115 -28z"/>
<path d="M3000 1498 c-55 -36 -95 -78 -130 -143 -31 -55 -33 -68 -34 -150 -1
-72 3 -97 17 -118 41 -62 124 -83 210 -53 84 29 175 137 146 172 -17 21 -23
18 -89 -32 -57 -43 -62 -45 -117 -42 -51 3 -58 6 -61 25 -3 17 3 24 25 29 144
33 260 184 212 277 -31 60 -114 76 -179 35z m98 -102 c8 -38 -115 -133 -140
-108 -8 8 -4 22 17 52 51 73 115 102 123 56z"/>
<path d="M3840 1498 c-61 -28 -148 -120 -189 -198 -28 -55 -33 -76 -34 -137
-1 -63 2 -75 23 -97 18 -20 33 -26 67 -26 52 0 94 21 153 77 24 23 47 40 52
37 4 -3 8 -22 8 -43 0 -41 31 -91 55 -91 27 0 63 23 69 43 3 14 -2 30 -16 44
-27 29 -34 103 -20 228 6 49 7 95 4 101 -13 23 -94 84 -110 84 -10 -1 -37 -10
-62 -22z m68 -100 c18 -18 15 -43 -13 -99 -61 -119 -185 -204 -185 -127 0 39
63 148 112 194 49 46 66 52 86 32z"/>
<path d="M5840 1511 c-48 -15 -85 -40 -131 -88 -117 -123 -162 -273 -103 -350
22 -29 30 -33 73 -33 38 0 57 7 92 31 24 18 54 43 66 58 25 31 34 24 52 -37
16 -56 50 -79 91 -62 39 16 48 45 22 73 -46 52 -55 121 -26 229 19 73 15 109
-11 123 -11 5 -32 22 -47 38 -28 28 -37 30 -78 18z m24 -107 c20 -8 21 -53 2
-97 -37 -88 -154 -192 -177 -156 -25 41 46 176 125 237 33 25 29 24 50 16z"/>
<path d="M2703 1492 c-32 -10 -91 -62 -115 -102 -12 -19 -33 -45 -46 -58 l-25
-24 7 24 c15 47 24 114 19 136 -5 20 -11 23 -42 20 -27 -2 -39 -9 -48 -28 -28
-59 -45 -338 -24 -393 11 -27 38 -57 52 -57 24 0 59 50 59 83 0 57 36 135 101
222 47 62 91 91 108 71 20 -24 51 -26 72 -5 55 55 -32 138 -118 111z"/>
<path d="M7405 1493 c-28 -7 -69 -47 -123 -120 -49 -67 -70 -75 -46 -17 8 20
14 57 12 82 l-3 47 -39 0 c-36 0 -40 -3 -54 -40 -16 -43 -30 -333 -18 -379 3
-14 18 -33 32 -42 24 -17 26 -16 50 7 15 16 28 44 33 75 11 58 33 120 49 136
7 7 12 17 12 24 0 19 104 124 123 124 10 0 28 -7 42 -16 53 -35 90 38 47 94
-19 24 -76 36 -117 25z"/>
<path d="M782 1478 c-7 -7 -12 -26 -12 -44 0 -17 -7 -51 -16 -75 -11 -29 -17
-81 -18 -156 -1 -105 0 -113 23 -137 50 -53 164 -22 217 59 24 37 42 31 54
-17 17 -66 18 -67 44 -80 20 -9 30 -8 51 6 31 21 31 36 0 82 -20 30 -25 49
-25 104 0 36 7 90 16 119 8 29 14 67 12 84 -3 28 -7 32 -34 35 -37 4 -45 -6
-69 -83 -24 -75 -75 -155 -128 -200 -46 -40 -63 -43 -72 -15 -9 27 4 129 20
160 19 39 28 125 15 149 -12 24 -58 29 -78 9z"/>
<path d="M1941 1468 c-4 -13 -13 -50 -20 -83 -7 -33 -19 -85 -27 -116 -18 -71
-18 -111 1 -156 26 -61 42 -73 98 -73 42 0 56 5 94 36 24 19 50 49 59 65 18
36 30 31 39 -18 15 -79 52 -116 93 -94 31 17 35 42 11 74 -18 25 -21 42 -20
131 0 59 6 117 15 141 18 52 8 79 -32 83 -27 3 -33 -2 -51 -37 -12 -22 -21
-48 -21 -58 0 -44 -75 -156 -131 -196 -39 -28 -64 -27 -74 2 -5 17 22 138 44
194 15 38 14 100 -1 115 -21 21 -68 15 -77 -10z"/>
<path d="M7616 1468 c-8 -13 -19 -57 -26 -98 -6 -41 -16 -101 -22 -134 -18
-96 -16 -171 6 -195 11 -12 29 -21 41 -21 41 0 49 24 51 154 1 84 7 135 18
165 19 51 21 122 4 139 -19 19 -56 14 -72 -10z"/>
<path d="M4160 1448 c-13 -21 -20 -51 -20 -82 0 -28 -5 -101 -11 -164 -13
-135 -6 -165 39 -160 22 2 33 14 57 63 37 71 77 134 123 193 63 79 95 49 109
-103 10 -107 52 -150 126 -128 35 10 64 51 54 76 -4 11 -18 17 -36 17 -37 0
-46 16 -55 95 -9 82 -32 154 -58 182 -30 32 -93 31 -136 0 -35 -26 -72 -70
-72 -85 0 -5 -7 -12 -15 -16 -12 -4 -15 5 -15 53 0 43 -5 62 -18 74 -28 25
-50 21 -72 -15z"/>
<path d="M7837 1462 c-12 -14 -17 -38 -17 -88 0 -38 -7 -100 -15 -139 -18 -85
-19 -167 -3 -183 7 -7 24 -12 38 -12 23 0 32 11 69 84 42 84 120 190 154 210
29 18 57 -24 57 -87 0 -68 29 -156 57 -174 49 -33 138 9 131 61 -2 16 -11 22
-35 24 -30 3 -34 8 -48 54 -8 29 -15 71 -15 95 0 47 -19 93 -53 131 -15 16
-32 22 -65 22 -39 0 -49 -5 -98 -52 -30 -29 -54 -61 -54 -70 0 -10 -7 -18 -16
-18 -14 0 -16 8 -11 50 11 92 -31 142 -76 92z"/>
<path d="M2880 754 l0 -34 69 0 c39 0 72 -4 76 -9 7 -13 9 -381 1 -388 -14
-14 -4 -23 24 -23 28 0 38 9 24 23 -8 7 -5 379 2 387 3 3 37 6 76 7 76 2 84 5
72 25 -5 7 -7 21 -6 31 3 16 -9 18 -167 17 l-171 -2 0 -34z"/>
<path d="M3481 562 c0 -125 -3 -235 -6 -244 -6 -15 -2 -18 24 -18 31 0 38 8
23 26 -4 5 -6 42 -4 82 l4 73 66 -3 c60 -3 67 -5 70 -25 2 -12 10 -27 18 -33
8 -7 14 -20 14 -30 0 -10 7 -23 15 -30 8 -7 15 -23 15 -36 0 -21 5 -24 41 -24
43 0 50 16 13 35 -11 6 -18 18 -16 31 2 11 -4 27 -13 34 -8 7 -15 21 -15 32 0
10 -7 21 -15 24 -18 7 -20 44 -2 44 12 0 34 21 51 48 4 7 2 20 -6 29 -11 14
-11 16 1 9 16 -10 31 10 31 44 0 14 -10 46 -22 71 -30 64 -82 86 -201 88 l-87
0 1 -227z m127 191 c-10 -2 -26 -2 -35 0 -10 3 -2 5 17 5 19 0 27 -2 18 -5z
m99 -59 c21 -21 25 -32 20 -66 -8 -62 -34 -79 -121 -81 -41 -1 -77 1 -80 4 -8
8 -10 145 -2 158 4 6 38 11 82 11 67 0 78 -3 101 -26z"/>
<path d="M4154 766 c-8 -14 -14 -35 -12 -48 2 -19 10 -24 41 -26 29 -3 40 -9
47 -28 5 -13 7 -31 4 -39 -4 -8 1 -26 10 -40 9 -13 16 -40 16 -59 0 -30 -4
-35 -30 -41 -17 -4 -48 -4 -70 0 -38 6 -40 9 -40 43 0 19 7 43 16 53 11 12 13
27 9 53 -11 55 -35 40 -35 -22 0 -15 -7 -36 -15 -46 -8 -11 -15 -34 -15 -50 0
-17 -7 -40 -15 -50 -8 -11 -15 -32 -15 -47 0 -15 -4 -31 -10 -34 -5 -3 -10
-17 -10 -30 0 -13 -4 -27 -10 -30 -20 -12 -9 -25 20 -25 30 0 43 24 18 32 -7
3 -3 13 11 27 14 14 21 31 19 44 -4 22 -2 22 99 19 90 -3 103 -5 103 -21 0 -9
6 -26 14 -37 8 -10 12 -29 9 -41 -5 -21 -1 -23 31 -23 36 0 49 16 21 26 -9 4
-13 13 -10 23 2 9 -2 29 -10 44 -8 15 -17 43 -21 63 -3 19 -10 37 -15 40 -5 3
-9 22 -9 43 0 22 -6 44 -15 51 -8 7 -18 30 -21 52 -4 21 -11 41 -15 44 -5 3
-9 19 -9 35 0 67 -53 95 -86 45z"/>
<path d="M4590 761 c0 -16 7 -36 15 -45 8 -8 15 -30 15 -49 0 -19 7 -40 15
-47 8 -7 15 -27 15 -44 0 -17 9 -44 19 -59 10 -16 16 -37 14 -48 -3 -10 2 -30
10 -43 9 -13 20 -46 24 -73 8 -48 8 -48 51 -51 l42 -3 0 44 c0 28 6 49 16 58
10 8 14 22 10 40 -3 18 1 35 14 52 11 14 20 39 20 57 0 17 7 38 15 46 8 9 15
33 15 54 0 21 5 40 11 42 6 2 14 22 19 45 5 33 4 43 -7 48 -22 8 -33 -3 -33
-33 0 -15 -7 -36 -15 -46 -8 -11 -15 -34 -15 -52 0 -17 -7 -45 -15 -60 -8 -16
-15 -40 -15 -54 0 -14 -7 -34 -15 -44 -8 -11 -15 -36 -15 -57 0 -38 -16 -54
-44 -43 -19 7 -36 49 -36 89 0 18 -7 40 -15 49 -8 8 -15 30 -15 48 0 19 -7 43
-15 54 -8 10 -15 36 -15 57 0 50 -25 97 -50 97 -15 0 -20 -7 -20 -29z"/>
<path d="M5219 783 c0 -4 0 -30 2 -58 1 -27 3 -128 3 -222 1 -130 -2 -174 -11
-178 -7 -2 -13 -9 -13 -15 0 -6 50 -10 140 -10 129 0 152 4 133 24 -4 4 -8 15
-8 24 0 14 -12 17 -75 18 -144 2 -130 -6 -130 74 l0 70 106 0 105 0 -3 32 -3
32 -80 2 c-44 1 -90 3 -103 3 -22 1 -23 4 -20 69 l3 67 103 2 c57 0 105 3 107
5 3 2 1 17 -4 34 l-7 29 -122 3 c-67 1 -122 -1 -123 -5z"/>
<path d="M5796 781 c-4 -5 -6 -108 -5 -229 1 -121 -1 -224 -4 -229 -12 -20 8
-23 146 -23 l139 0 -6 22 c-3 13 -6 29 -6 36 0 9 -27 12 -105 10 -58 -1 -110
3 -115 8 -5 5 -11 99 -12 208 -2 140 -6 200 -15 203 -6 2 -14 0 -17 -6z"/>
<path d="M484 561 c-2 -2 -4 -13 -4 -23 0 -17 37 -18 1053 -16 997 3 1052 4
1052 21 0 16 -54 17 -1048 20 -577 1 -1051 0 -1053 -2z"/>
<path d="M6364 561 c-2 -2 -4 -13 -4 -23 0 -17 39 -18 1056 -18 1053 0 1055 0
1052 20 -3 20 -8 20 -1051 23 -577 1 -1051 0 -1053 -2z"/>
</g>
</svg>
